<?xml version="1.0" standalone="no"?>
<!DOCTYPE svg PUBLIC "-//W3C//DTD SVG 20010904//EN"
 "http://www.w3.org/TR/2001/REC-SVG-20010904/DTD/svg10.dtd">
<svg version="1.0" xmlns="http://www.w3.org/2000/svg"
 width="150.000000pt" height="150.000000pt" viewBox="0 0 150.000000 150.000000"
 preserveAspectRatio="xMidYMid meet">
<metadata>
Created by potrace 1.10, written by Peter Selinger 2001-2011
</metadata>
<g transform="translate(0.000000,150.000000) scale(0.100000,-0.100000)"
fill="#dddddd" stroke="none">
<path d="M580 1409 c-82 -23 -134 -42 -151 -55 -8 -5 -32 -19 -53 -29 -49 -25
-164 -135 -203 -196 -47 -72 -94 -179 -91 -206 2 -14 15 -32 30 -41 24 -14 30
-14 54 -2 14 8 28 21 31 30 6 19 33 81 44 100 5 8 13 25 18 37 13 29 141 157
177 176 107 57 175 77 283 84 158 10 301 -47 424 -169 42 -42 77 -82 77 -89 0
-7 6 -20 13 -28 28 -34 77 -184 77 -235 0 -34 34 -76 61 -76 27 0 59 44 59 81
0 34 -27 142 -52 209 -58 155 -223 320 -378 378 -148 55 -298 66 -420 31z"/>
<path d="M72 740 c-28 -26 -29 -79 -2 -137 16 -37 23 -43 49 -43 46 0 63 33
55 105 -10 86 -55 119 -102 75z"/>
<path d="M188 443 c-9 -2 -19 -17 -23 -32 -10 -45 21 -100 78 -136 25 -16 29
-16 52 -1 41 27 34 73 -18 130 -42 44 -52 49 -89 39z"/>
<path d="M1135 324 c-14 -15 -25 -34 -25 -44 0 -53 77 -74 111 -29 23 30 23
43 3 74 -21 33 -58 32 -89 -1z"/>
<path d="M410 211 c-5 -11 -10 -26 -10 -34 0 -45 91 -95 135 -75 25 11 39 46
29 72 -18 48 -133 75 -154 37z"/>
<path d="M936 195 c-38 -36 -34 -70 12 -94 19 -10 28 -9 55 6 42 25 49 73 15
97 -31 22 -51 20 -82 -9z"/>
<path d="M690 150 c-39 -39 -12 -100 44 -100 39 0 66 26 66 63 0 54 -70 77
-110 37z"/>
</g>
</svg>
